<svg version="1.1" xmlns="http://www.w3.org/2000/svg" viewBox="0 0 1400 586.6000213623047" width="1400" height="586.6000213623047">
  <!-- svg-source:excalidraw -->
  
  <defs>
    <style class="style-fonts">
      @font-face {
        font-family: "Virgil";
        src: url("https://excalidraw.com/Virgil.woff2");
      }
      @font-face {
        font-family: "Cascadia";
        src: url("https://excalidraw.com/Cascadia.woff2");
      }
      @font-face {
        font-family: "Assistant";
        src: url("https://excalidraw.com/Assistant-Regular.woff2");
      }
    </style>
    
  </defs>
  <rect x="0" y="0" width="1400" height="586.6000213623047" fill="#ffffff"></rect><g stroke-linecap="round" transform="translate(473.2000427246094 10) rotate(0 220.8000030517578 99.99999237060547)"><path d="M32 0 C174.75 0.58, 317.92 0.99, 409.6 0 M32 0 C109.99 -0.09, 189.26 -0.45, 409.6 0 M409.6 0 C432.23 -1.28, 440.05 8.82, 441.6 32 M409.6 0 C432.82 -1.24, 443.83 12.23, 441.6 32 M441.6 32 C441.28 69.96, 442.98 112.1, 441.6 168 M441.6 32 C439.75 61.27, 440.92 90.48, 441.6 168 M441.6 168 C442.15 189.16, 432.73 200.83, 409.6 200 M441.6 168 C440.05 191.04, 430.71 200.22, 409.6 200 M409.6 200 C315.45 202.65, 220.42 203.35, 32 200 M409.6 200 C259.41 200.99, 108.97 201.04, 32 200 M32 200 C11.93 199.88, -0.03 189.96, 0 168 M32 200 C12.08 200.61, -0.86 187.22, 0 168 M0 168 C1.04 120.15, 2.92 72.64, 0 32 M0 168 C-0.65 133.87, -1.23 100.06, 0 32 M0 32 C1.72 9.18, 10.22 -0.92, 32 0 M0 32 C-1.28 9.36, 9.89 -1.47, 32 0" stroke="#1e1e1e" stroke-width="2" fill="none"></path></g><g transform="translate(490.7401885986328 72.49999237060547) rotate(0 203.25985717773438 37.5)"><text x="203.25985717773438" y="17.52" font-family="Virgil, Segoe UI Emoji" font-size="20px" fill="#1e1e1e" text-anchor="middle" style="white-space: pre;" direction="ltr" dominant-baseline="alphabetic">Define Architecture - Software</text><text x="203.25985717773438" y="42.519999999999996" font-family="Virgil, Segoe UI Emoji" font-size="20px" fill="#1e1e1e" text-anchor="middle" style="white-space: pre;" direction="ltr" dominant-baseline="alphabetic">(Controller, Worker, CNI, Runtime, RBAC, </text><text x="203.25985717773438" y="67.52" font-family="Virgil, Segoe UI Emoji" font-size="20px" fill="#1e1e1e" text-anchor="middle" style="white-space: pre;" direction="ltr" dominant-baseline="alphabetic">IPAM, Cilium, eBPF)</text></g><g stroke-linecap="round" transform="translate(948.3999938964844 11.600013732910156) rotate(0 220.8000030517578 99.99999237060547)"><path d="M32 0 C125.38 1.05, 217.88 2.64, 409.6 0 M32 0 C178.3 0.52, 324.86 0.59, 409.6 0 M409.6 0 C431.47 1.92, 442.22 12.56, 441.6 32 M409.6 0 C432.21 -0.15, 439.79 11.48, 441.6 32 M441.6 32 C444.54 76.57, 442.98 125.46, 441.6 168 M441.6 32 C440.77 68.89, 441.49 106.18, 441.6 168 M441.6 168 C442.9 190.06, 429.66 200.5, 409.6 200 M441.6 168 C442.06 187.92, 431.12 200.32, 409.6 200 M409.6 200 C259.77 199.8, 108.8 199.99, 32 200 M409.6 200 C331.26 200.41, 251.18 199.47, 32 200 M32 200 C9.63 198.13, -1.75 188.38, 0 168 M32 200 C10.59 201.26, 1.61 190.2, 0 168 M0 168 C-2.47 124.41, -2.5 79.7, 0 32 M0 168 C-1.58 118.91, -1.25 68.39, 0 32 M0 32 C0.77 12.09, 11.37 1.37, 32 0 M0 32 C-1.31 12.77, 8.71 -1.24, 32 0" stroke="#1e1e1e" stroke-width="2" fill="none"></path></g><g transform="translate(955.0601654052734 74.10000610351562) rotate(0 214.13983154296875 37.5)"><text x="214.13983154296875" y="17.52" font-family="Virgil, Segoe UI Emoji" font-size="20px" fill="#1e1e1e" text-anchor="middle" style="white-space: pre;" direction="ltr" dominant-baseline="alphabetic">Define Initial Services</text><text x="214.13983154296875" y="42.519999999999996" font-family="Virgil, Segoe UI Emoji" font-size="20px" fill="#1e1e1e" text-anchor="middle" style="white-space: pre;" direction="ltr" dominant-baseline="alphabetic">(Reverse Proxy, Load Balancer, Kubernetes</text><text x="214.13983154296875" y="67.52" font-family="Virgil, Segoe UI Emoji" font-size="20px" fill="#1e1e1e" text-anchor="middle" style="white-space: pre;" direction="ltr" dominant-baseline="alphabetic">Dashboard, ArgoCD)</text></g><g stroke-linecap="round" transform="translate(10 11.800010681152344) rotate(0 220.8000030517578 99.99999237060547)"><path d="M32 0 C140.9 0.57, 250.98 1.57, 409.6 0 M32 0 C150.78 -1.22, 269.58 -2.13, 409.6 0 M409.6 0 C431.37 -1.7, 443.6 9.2, 441.6 32 M409.6 0 C429.59 1.45, 440.02 12.82, 441.6 32 M441.6 32 C443.07 61.48, 441.63 89.87, 441.6 168 M441.6 32 C441.72 84.89, 442.31 137.97, 441.6 168 M441.6 168 C442.39 188.56, 431.97 201.48, 409.6 200 M441.6 168 C442.17 190.18, 431.37 200.63, 409.6 200 M409.6 200 C323.46 201.5, 239.31 200.25, 32 200 M409.6 200 C321.95 200.4, 233.35 200.21, 32 200 M32 200 C11.97 200.82, 0.9 187.51, 0 168 M32 200 C10.26 199.52, 0.18 188.09, 0 168 M0 168 C2.68 118.03, 2.44 70.67, 0 32 M0 168 C-0.78 114.57, -0.99 61.28, 0 32 M0 32 C0.86 10.86, 12.3 0.74, 32 0 M0 32 C0.16 11.04, 10.95 1.45, 32 0" stroke="#1e1e1e" stroke-width="2" fill="none"></path></g><g transform="translate(19.010147094726562 86.80000305175781) rotate(0 211.78985595703125 25)"><text x="211.78985595703125" y="17.52" font-family="Virgil, Segoe UI Emoji" font-size="20px" fill="#1e1e1e" text-anchor="middle" style="white-space: pre;" direction="ltr" dominant-baseline="alphabetic">Define Architecture - Machine</text><text x="211.78985595703125" y="42.519999999999996" font-family="Virgil, Segoe UI Emoji" font-size="20px" fill="#1e1e1e" text-anchor="middle" style="white-space: pre;" direction="ltr" dominant-baseline="alphabetic">(OS, User, Access, Primary, Secondary, DR)</text></g><g stroke-linecap="round" transform="translate(147.60001373291016 245.99998474121094) rotate(0 87.20001220703125 42.00001525878906)"><path d="M110 10.75 C119.69 16.54, 130.64 23.03, 152.4 32.25 M110 10.75 C121.28 17.93, 134.51 24.27, 152.4 32.25 M152.4 32.25 C172.52 44.51, 173.89 43.45, 152.4 53.75 M152.4 32.25 C173.25 42.75, 175.72 43.73, 152.4 53.75 M152.4 53.75 C141.62 57.47, 129.77 63.81, 110 73.25 M152.4 53.75 C139.23 58.98, 125.25 66.05, 110 73.25 M110 73.25 C86.95 83.15, 87.69 85.74, 66 73.25 M110 73.25 C88.13 83.58, 87.86 84.14, 66 73.25 M66 73.25 C58.48 71.04, 49.16 63.82, 22 53.75 M66 73.25 C56.6 67.65, 47.5 64.01, 22 53.75 M22 53.75 C0.96 41.58, 0.48 43.63, 22 32.25 M22 53.75 C-1.41 42.77, 0.92 44.58, 22 32.25 M22 32.25 C36.53 24.8, 53.08 18.02, 66 10.75 M22 32.25 C37.77 24.5, 55.06 17.64, 66 10.75 M66 10.75 C86.01 -0.44, 89.75 1.7, 110 10.75 M66 10.75 C88.32 0.3, 85.7 -1.81, 110 10.75" stroke="#1e1e1e" stroke-width="2" fill="none"></path></g><g transform="translate(224.02802276611328 277.99999237060547) rotate(0 10.6719970703125 10)"><text x="10.6719970703125" y="14.016" font-family="Virgil, Segoe UI Emoji" font-size="16px" fill="#1e1e1e" text-anchor="middle" style="white-space: pre;" direction="ltr" dominant-baseline="alphabetic">OS</text></g><g stroke-linecap="round" transform="translate(151.40000915527344 361.8000183105469) rotate(0 84.80001831054688 47.59999084472656)"><path d="M106.25 12 C119.11 17.92, 133.78 28.82, 148.35 36 M106.25 12 C118.81 18.35, 130.91 25.2, 148.35 36 M148.35 36 C169.09 49.18, 171.12 46.8, 148.35 60 M148.35 36 C168.62 46.02, 168.68 49.18, 148.35 60 M148.35 60 C138.8 65.16, 130.76 70.76, 106.25 83.2 M148.35 60 C133.36 68.1, 118.66 76.53, 106.25 83.2 M106.25 83.2 C83.47 94.22, 85.82 95, 63.75 83.2 M106.25 83.2 C84.33 94.2, 85.59 95.54, 63.75 83.2 M63.75 83.2 C55.21 76.32, 44.27 70.79, 21.25 60 M63.75 83.2 C50.41 76.72, 37.65 68.84, 21.25 60 M21.25 60 C1.76 48.82, -0.12 46.18, 21.25 36 M21.25 60 C-0.91 46.73, -0.53 48.03, 21.25 36 M21.25 36 C34.08 31.57, 42.42 25.3, 63.75 12 M21.25 36 C33.87 28.5, 45.99 22.96, 63.75 12 M63.75 12 C83.92 0.56, 85.53 -1.55, 106.25 12 M63.75 12 C84.99 -0.85, 85.89 1.95, 106.25 12" stroke="#1e1e1e" stroke-width="2" fill="none"></path></g><g transform="translate(200.54004669189453 399.60001373291016) rotate(0 35.759971618652344 10)"><text x="35.759971618652344" y="14.016" font-family="Virgil, Segoe UI Emoji" font-size="16px" fill="#1e1e1e" text-anchor="middle" style="white-space: pre;" direction="ltr" dominant-baseline="alphabetic">Hardware</text></g><g stroke-linecap="round" transform="translate(596.2000274658203 229.199951171875) rotate(0 98.39999389648438 50)"><path d="M123.75 12.75 C137.28 18.85, 150.24 27.62, 172.05 38.25 M123.75 12.75 C136.82 19.38, 149.58 25.86, 172.05 38.25 M172.05 38.25 C198.55 49.53, 196.6 50.83, 172.05 63.75 M172.05 38.25 C198.23 48.96, 197.88 49.5, 172.05 63.75 M172.05 63.75 C154.93 72.59, 136.76 80.36, 123.75 87.25 M172.05 63.75 C156.88 71.68, 144.08 76.79, 123.75 87.25 M123.75 87.25 C97.43 101.95, 98.43 100.25, 74.25 87.25 M123.75 87.25 C99.19 97.71, 99.57 101, 74.25 87.25 M74.25 87.25 C60.11 78.89, 49.35 72.32, 24.75 63.75 M74.25 87.25 C62.7 81.86, 51.99 77.56, 24.75 63.75 M24.75 63.75 C1.21 52.52, -1.38 50.84, 24.75 38.25 M24.75 63.75 C-1.61 48.74, 2.2 51.65, 24.75 38.25 M24.75 38.25 C39.02 29.35, 54.74 24.67, 74.25 12.75 M24.75 38.25 C40.49 30.37, 56.41 21.5, 74.25 12.75 M74.25 12.75 C98.24 -1.68, 98.2 -0.8, 123.75 12.75 M74.25 12.75 C100.94 2.09, 99.27 -0.52, 123.75 12.75" stroke="#1e1e1e" stroke-width="2" fill="none"></path></g><g transform="translate(651.7200469970703 269.199951171875) rotate(0 42.67997741699219 10)"><text x="42.67997741699219" y="14.016" font-family="Virgil, Segoe UI Emoji" font-size="16px" fill="#1e1e1e" text-anchor="middle" style="white-space: pre;" direction="ltr" dominant-baseline="alphabetic">Kubernetes</text></g><g stroke-linecap="round" transform="translate(591.8000030517578 352.8000030517578) rotate(0 98.39999389648438 50)"><path d="M123.75 12.75 C134.5 18.96, 148.39 25.11, 172.05 38.25 M123.75 12.75 C134.64 18.68, 147.54 24.34, 172.05 38.25 M172.05 38.25 C197.93 49.58, 195.16 50.51, 172.05 63.75 M172.05 38.25 C196.74 50.73, 196.35 49.83, 172.05 63.75 M172.05 63.75 C157.3 72.08, 146.59 77.52, 123.75 87.25 M172.05 63.75 C161.17 68.27, 151.75 73, 123.75 87.25 M123.75 87.25 C100.5 100.85, 100.79 100.4, 74.25 87.25 M123.75 87.25 C100.23 99.83, 100.2 100.6, 74.25 87.25 M74.25 87.25 C60.94 79.11, 47.89 74.85, 24.75 63.75 M74.25 87.25 C56.84 78.24, 40.59 70.02, 24.75 63.75 M24.75 63.75 C1.71 51.09, 0.63 51.69, 24.75 38.25 M24.75 63.75 C0.74 49.65, -0.72 50.57, 24.75 38.25 M24.75 38.25 C34.07 34.51, 44.27 25.62, 74.25 12.75 M24.75 38.25 C45.13 29.03, 64.05 18.73, 74.25 12.75 M74.25 12.75 C99.96 -0.12, 100.72 0.46, 123.75 12.75 M74.25 12.75 C98.81 0.77, 99.76 -0.54, 123.75 12.75" stroke="#1e1e1e" stroke-width="2" fill="none"></path></g><g transform="translate(661.9360198974609 392.8000030517578) rotate(0 28.063980102539062 10)"><text x="28.063980102539062" y="14.016" font-family="Virgil, Segoe UI Emoji" font-size="16px" fill="#1e1e1e" text-anchor="middle" style="white-space: pre;" direction="ltr" dominant-baseline="alphabetic">Policies</text></g><g stroke-linecap="round" transform="translate(593.6000518798828 476.6000213623047) rotate(0 98.39999389648438 50)"><path d="M123.75 12.75 C140.24 20.98, 155.13 27.64, 172.05 38.25 M123.75 12.75 C136.63 20.38, 147.68 25.74, 172.05 38.25 M172.05 38.25 C196.65 49.38, 198.16 52.61, 172.05 63.75 M172.05 38.25 C197.11 51.4, 197.54 51.58, 172.05 63.75 M172.05 63.75 C155.72 72.2, 138.17 79.68, 123.75 87.25 M172.05 63.75 C156.14 70.45, 141.6 78.86, 123.75 87.25 M123.75 87.25 C100.06 100.27, 100.14 98.57, 74.25 87.25 M123.75 87.25 C99.4 99.11, 98.62 100.64, 74.25 87.25 M74.25 87.25 C57.47 80.51, 41.13 70.32, 24.75 63.75 M74.25 87.25 C57.99 80.4, 43.2 73.65, 24.75 63.75 M24.75 63.75 C-1.9 52, -1.44 52.16, 24.75 38.25 M24.75 63.75 C0.78 48.9, 0.58 49.39, 24.75 38.25 M24.75 38.25 C41.56 28.18, 60.78 21.72, 74.25 12.75 M24.75 38.25 C36.05 34.23, 44.98 28.5, 74.25 12.75 M74.25 12.75 C100.99 -1.68, 97.4 0.2, 123.75 12.75 M74.25 12.75 C98.08 -0.39, 100.84 -0.68, 123.75 12.75" stroke="#1e1e1e" stroke-width="2" fill="none"></path></g><g transform="translate(664.5680694580078 516.6000213623047) rotate(0 27.231979370117188 10)"><text x="27.231979370117188" y="14.016" font-family="Virgil, Segoe UI Emoji" font-size="16px" fill="#1e1e1e" text-anchor="middle" style="white-space: pre;" direction="ltr" dominant-baseline="alphabetic">Truths</text></g><g stroke-linecap="round" transform="translate(1072.5999908447266 223.8000030517578) rotate(0 98.39999389648438 50)"><path d="M123.75 12.75 C138.4 21.02, 151.16 26.4, 172.05 38.25 M123.75 12.75 C137.2 20.26, 151.68 28.35, 172.05 38.25 M172.05 38.25 C195.22 51.45, 196.2 51.66, 172.05 63.75 M172.05 38.25 C195.7 52.65, 196.74 51.72, 172.05 63.75 M172.05 63.75 C156.12 73.61, 140.4 78.48, 123.75 87.25 M172.05 63.75 C156.95 70.54, 142.67 77.46, 123.75 87.25 M123.75 87.25 C100.77 98.78, 97.43 99.68, 74.25 87.25 M123.75 87.25 C99.38 100.14, 98.23 98.18, 74.25 87.25 M74.25 87.25 C62.07 82.1, 50.03 75.25, 24.75 63.75 M74.25 87.25 C58.79 79.97, 44.5 73.97, 24.75 63.75 M24.75 63.75 C-0.21 50.33, 0 52.14, 24.75 38.25 M24.75 63.75 C1.48 51.93, 0.73 50.05, 24.75 38.25 M24.75 38.25 C34.42 32.15, 48.21 25.66, 74.25 12.75 M24.75 38.25 C38.7 31.07, 53.34 23.29, 74.25 12.75 M74.25 12.75 C98.44 1.26, 100.99 1.49, 123.75 12.75 M74.25 12.75 C100.53 0.64, 98.38 -0.01, 123.75 12.75" stroke="#1e1e1e" stroke-width="2" fill="none"></path></g><g transform="translate(1142.0480117797852 263.8000030517578) rotate(0 28.751976013183594 10)"><text x="28.751976013183594" y="14.016" font-family="Virgil, Segoe UI Emoji" font-size="16px" fill="#1e1e1e" text-anchor="middle" style="white-space: pre;" direction="ltr" dominant-baseline="alphabetic">Traffic</text></g><g stroke-linecap="round" transform="translate(1074.0000762939453 347.8000030517578) rotate(0 98.39999389648438 50)"><path d="M123.75 12.75 C137.48 18.03, 148.93 25.88, 172.05 38.25 M123.75 12.75 C135.94 20.71, 149.89 26.31, 172.05 38.25 M172.05 38.25 C194.83 52.24, 196.4 50.63, 172.05 63.75 M172.05 38.25 C198.53 51.49, 194.76 51.51, 172.05 63.75 M172.05 63.75 C154.17 70.96, 139.18 80.09, 123.75 87.25 M172.05 63.75 C160.9 69.6, 152.23 74.3, 123.75 87.25 M123.75 87.25 C100.17 98.06, 97.86 100.33, 74.25 87.25 M123.75 87.25 C98.89 98.84, 101.15 98.99, 74.25 87.25 M74.25 87.25 C55.74 79.84, 40.03 71.81, 24.75 63.75 M74.25 87.25 C59.23 80.06, 44.49 72.64, 24.75 63.75 M24.75 63.75 C-0.26 49.14, -1.38 49.65, 24.75 38.25 M24.75 63.75 C0.09 50.74, -1.32 49.55, 24.75 38.25 M24.75 38.25 C37.7 29.57, 49.7 25.34, 74.25 12.75 M24.75 38.25 C39.31 30.04, 54.81 22.49, 74.25 12.75 M74.25 12.75 C97.33 -1.37, 97.37 1.62, 123.75 12.75 M74.25 12.75 C98.75 -1.89, 99.67 -2.24, 123.75 12.75" stroke="#1e1e1e" stroke-width="2" fill="none"></path></g><g transform="translate(1132.1040954589844 377.8000030517578) rotate(0 40.095977783203125 20)"><text x="40.095977783203125" y="14.016" font-family="Virgil, Segoe UI Emoji" font-size="16px" fill="#1e1e1e" text-anchor="middle" style="white-space: pre;" direction="ltr" dominant-baseline="alphabetic">Access &amp; </text><text x="40.095977783203125" y="34.016" font-family="Virgil, Segoe UI Emoji" font-size="16px" fill="#1e1e1e" text-anchor="middle" style="white-space: pre;" direction="ltr" dominant-baseline="alphabetic">Control</text></g><g stroke-linecap="round" transform="translate(1074.4001007080078 471.40000915527344) rotate(0 98.39999389648438 50)"><path d="M123.75 12.75 C135.44 17.93, 147.02 26.92, 172.05 38.25 M123.75 12.75 C136.71 19.96, 148.61 26.55, 172.05 38.25 M172.05 38.25 C198.72 50.04, 196.29 51.69, 172.05 63.75 M172.05 38.25 C198.15 50.83, 195.25 51.02, 172.05 63.75 M172.05 63.75 C152.36 72.93, 137.51 80.34, 123.75 87.25 M172.05 63.75 C161.39 69.35, 151.55 74.15, 123.75 87.25 M123.75 87.25 C100.42 99.79, 100.91 99.26, 74.25 87.25 M123.75 87.25 C97.04 101.85, 100.58 98.71, 74.25 87.25 M74.25 87.25 C59.9 80.23, 47.46 73.5, 24.75 63.75 M74.25 87.25 C62.61 81.51, 50.21 76.1, 24.75 63.75 M24.75 63.75 C-1.75 49.3, 1.78 51.79, 24.75 38.25 M24.75 63.75 C-1.33 51.22, -0.84 50.13, 24.75 38.25 M24.75 38.25 C34.63 35.05, 45.47 28.25, 74.25 12.75 M24.75 38.25 C34.43 32.37, 46.36 27.89, 74.25 12.75 M74.25 12.75 C99.29 -0.11, 99.75 -1.04, 123.75 12.75 M74.25 12.75 C100.04 1.24, 100.66 1.99, 123.75 12.75" stroke="#1e1e1e" stroke-width="2" fill="none"></path></g><g transform="translate(1129.1921157836914 501.40000915527344) rotate(0 43.407981872558594 20)"><text x="43.407981872558594" y="14.016" font-family="Virgil, Segoe UI Emoji" font-size="16px" fill="#1e1e1e" text-anchor="middle" style="white-space: pre;" direction="ltr" dominant-baseline="alphabetic">Develop &amp; </text><text x="43.407981872558594" y="34.016" font-family="Virgil, Segoe UI Emoji" font-size="16px" fill="#1e1e1e" text-anchor="middle" style="white-space: pre;" direction="ltr" dominant-baseline="alphabetic">Deploy</text></g></svg>