<svg version="1.1" xmlns="http://www.w3.org/2000/svg" viewBox="0 0 920.6973540356666 591.299618731714" width="920.6973540356666" height="591.299618731714">
  <!-- svg-source:excalidraw -->
  
  <defs>
    <style class="style-fonts">
      @font-face {
        font-family: "Virgil";
        src: url("https://excalidraw.com/Virgil.woff2");
      }
      @font-face {
        font-family: "Cascadia";
        src: url("https://excalidraw.com/Cascadia.woff2");
      }
      @font-face {
        font-family: "Assistant";
        src: url("https://excalidraw.com/Assistant-Regular.woff2");
      }
    </style>
    
  </defs>
  <g stroke-linecap="round" transform="translate(10 10) rotate(0 450.3486770178333 285.649809365857)"><path d="M32 0 C301.3 5.86, 572.6 6.27, 868.7 0 C891.05 -0.62, 899.93 11.51, 900.7 32 C899.12 208.26, 896.47 383.61, 900.7 539.3 C902.53 559.44, 890.99 572.81, 868.7 571.3 C566.16 573.5, 265.72 572.17, 32 571.3 C8.81 568.09, 2.53 563.54, 0 539.3 C1.96 355.41, 2.27 172.53, 0 32 C-0.35 9.24, 10.5 1.61, 32 0" stroke="none" stroke-width="0" fill="#f3f0ff"></path><path d="M32 0 C355.27 -0.94, 678.73 -0.59, 868.7 0 M32 0 C218.22 1.64, 404.12 1.9, 868.7 0 M868.7 0 C888.82 -1.16, 899.16 10.55, 900.7 32 M868.7 0 C890.76 0.99, 901.55 12.15, 900.7 32 M900.7 32 C901.3 195.33, 900.27 356.83, 900.7 539.3 M900.7 32 C900.78 232.5, 900.78 432.57, 900.7 539.3 M900.7 539.3 C900.11 562, 888.53 572.38, 868.7 571.3 M900.7 539.3 C902.39 558.44, 888.1 573.35, 868.7 571.3 M868.7 571.3 C645.63 573.4, 422.1 574.19, 32 571.3 M868.7 571.3 C576.89 570.06, 284.8 569.94, 32 571.3 M32 571.3 C11.67 571.9, -1.94 561.24, 0 539.3 M32 571.3 C12.26 572.52, -1.23 560.46, 0 539.3 M0 539.3 C-2.55 360.3, -2.46 182.54, 0 32 M0 539.3 C-0.29 345.48, 0.14 151.44, 0 32 M0 32 C0.46 8.8, 9.51 0.16, 32 0 M0 32 C0.06 11.17, 12.2 0.01, 32 0" stroke="#1e1e1e" stroke-width="2" fill="none"></path></g><g transform="translate(346.7387298132435 15) rotate(0 113.60994720458984 17.5)"><text x="113.60994720458984" y="24.528" font-family="Virgil, Segoe UI Emoji" font-size="28px" fill="#1e1e1e" text-anchor="middle" style="white-space: pre;" direction="ltr" dominant-baseline="alphabetic">Openk8s Project</text></g><g stroke-linecap="round" transform="translate(422.24705524517367 67.4647410341754) rotate(0 227.98511388558813 248.8041737798295)"><path d="M32 0 C159.26 -2.5, 284.9 -1.65, 423.97 0 C446.97 -2.79, 457.97 13.81, 455.97 32 C453.05 177.81, 452.6 325.61, 455.97 465.61 C458.16 483.64, 446.58 495.8, 423.97 497.61 C303.49 492.15, 186.64 495.7, 32 497.61 C12.83 495.75, -0.5 487.12, 0 465.61 C-1.23 370.77, -1.14 278.2, 0 32 C-0.67 12.13, 12.33 -2.2, 32 0" stroke="none" stroke-width="0" fill="#ffffff"></path><path d="M32 0 C120.22 0.14, 209.7 1.7, 423.97 0 M32 0 C157.51 -2.3, 283.27 -2, 423.97 0 M423.97 0 C445.94 0.86, 456.72 11.96, 455.97 32 M423.97 0 C445.77 -0.18, 458.03 12.87, 455.97 32 M455.97 32 C456.2 205.12, 455.77 378.24, 455.97 465.61 M455.97 32 C455.95 195.8, 455.72 359.18, 455.97 465.61 M455.97 465.61 C457.44 485.03, 443.63 499.4, 423.97 497.61 M455.97 465.61 C455.22 487.61, 447.06 499.36, 423.97 497.61 M423.97 497.61 C328.96 497.84, 232.45 498.52, 32 497.61 M423.97 497.61 C326.55 495.96, 227.99 495.96, 32 497.61 M32 497.61 C12.05 498.67, -1.07 486.79, 0 465.61 M32 497.61 C11.86 499.65, -1.29 484.79, 0 465.61 M0 465.61 C2.66 362.21, 2.12 258.43, 0 32 M0 465.61 C-1.91 317.94, -2.32 171.26, 0 32 M0 32 C0.05 11.1, 12 0.01, 32 0 M0 32 C0.53 9.12, 8.56 -1.65, 32 0" stroke="#1e1e1e" stroke-width="2" fill="none"></path></g><g transform="translate(528.8822698387696 72.4647410341754) rotate(0 121.34989929199219 12.5)"><text x="121.34989929199219" y="17.52" font-family="Virgil, Segoe UI Emoji" font-size="20px" fill="#1e1e1e" text-anchor="middle" style="white-space: pre;" direction="ltr" dominant-baseline="alphabetic">Future State Framework</text></g><g stroke-linecap="round" transform="translate(30.025770904341243 106.44321513366413) rotate(0 180.99214731576893 200.433158664117)"><path d="M32 0 C117.5 -2.98, 202.01 1.4, 329.98 0 C352.67 -3.49, 362.41 12.5, 361.98 32 C364.54 119.71, 363.93 210.64, 361.98 368.87 C362.15 391.83, 348.16 399.01, 329.98 400.87 C268.76 402.68, 203.97 404.19, 32 400.87 C7.68 401.82, -3.46 389.84, 0 368.87 C-0.26 282.14, 1.3 191.97, 0 32 C-1.26 11.32, 7.42 0.95, 32 0" stroke="none" stroke-width="0" fill="#ffffff"></path><path d="M32 0 C108.57 -0.53, 185.79 -2.87, 329.98 0 M32 0 C104.31 0.45, 176.42 0.61, 329.98 0 M329.98 0 C351.73 -0.16, 363.77 12.59, 361.98 32 M329.98 0 C353.6 -0.77, 361.27 12.84, 361.98 32 M361.98 32 C364.21 134.05, 363.81 235.53, 361.98 368.87 M361.98 32 C360.78 155.52, 359.72 280.93, 361.98 368.87 M361.98 368.87 C361.33 390.78, 352.84 402.39, 329.98 400.87 M361.98 368.87 C360.69 392.41, 352.31 401.99, 329.98 400.87 M329.98 400.87 C258.88 399.54, 188.1 401.49, 32 400.87 M329.98 400.87 C232.1 401.93, 132.81 401.48, 32 400.87 M32 400.87 C11.7 402.64, -1.12 388.33, 0 368.87 M32 400.87 C9.26 398.97, 0.71 392.09, 0 368.87 M0 368.87 C-0.14 265.24, -0.36 159.45, 0 32 M0 368.87 C1.33 299.42, 1.75 229.69, 0 32 M0 32 C0.46 9.32, 8.83 -1.43, 32 0 M0 32 C0.53 10.58, 11.87 0.65, 32 0" stroke="#1e1e1e" stroke-width="2" fill="none"></path></g><g transform="translate(108.83800946766883 111.44321513366413) rotate(0 102.1799087524414 12.5)"><text x="102.1799087524414" y="17.52" font-family="Virgil, Segoe UI Emoji" font-size="20px" fill="#1e1e1e" text-anchor="middle" style="white-space: pre;" direction="ltr" dominant-baseline="alphabetic">openk8s MVP cluster</text></g><g stroke-linecap="round" transform="translate(45.95255926240452 150.34626215076696) rotate(0 156.5236475593618 173.45749247075412)"><path d="M32 0 C88.51 -6.06, 143.14 -1.71, 281.05 0 C301.19 0.96, 314.56 12.85, 313.05 32 C314.55 92.17, 312.01 148.44, 313.05 314.91 C309.84 338.78, 305.29 349.08, 281.05 346.91 C216.78 347.88, 154.57 346.81, 32 346.91 C9.24 346.75, 1.61 335.58, 0 314.91 C-2.75 219.01, -4.26 122.84, 0 32 C-1.17 9.3, 12.78 2.01, 32 0" stroke="none" stroke-width="0" fill="#e3fafc"></path><path d="M32 0 C130.36 -0.02, 230.52 1.75, 281.05 0 M32 0 C117.57 -1.38, 203.54 -0.53, 281.05 0 M281.05 0 C304.36 -0.67, 312.43 12.56, 313.05 32 M281.05 0 C302.44 1.22, 313.18 12.44, 313.05 32 M313.05 32 C315.1 117.44, 314.89 206.29, 313.05 314.91 M313.05 32 C310.99 90.09, 311.82 148.32, 313.05 314.91 M313.05 314.91 C311.92 338.17, 303.24 347.89, 281.05 346.91 M313.05 314.91 C311.58 335.54, 302.26 345.75, 281.05 346.91 M281.05 346.91 C227.32 346.35, 173.11 349.07, 32 346.91 M281.05 346.91 C193.55 347.49, 104.74 346, 32 346.91 M32 346.91 C9.44 345.27, 0.62 337.9, 0 314.91 M32 346.91 C10.93 347.6, -0.35 337.16, 0 314.91 M0 314.91 C-1.93 203.26, -0.39 93.4, 0 32 M0 314.91 C-1.26 223.34, -2.13 132.24, 0 32 M0 32 C0.46 10.59, 11.71 0.57, 32 0 M0 32 C-0.4 10.18, 11.2 1.07, 32 0" stroke="#1e1e1e" stroke-width="2" fill="none"></path></g><g transform="translate(63.116313022938186 155.34626215076696) rotate(0 139.3598937988281 25)"><text x="139.35989379882812" y="17.52" font-family="Virgil, Segoe UI Emoji" font-size="20px" fill="#1e1e1e" text-anchor="middle" style="white-space: pre;" direction="ltr" dominant-baseline="alphabetic">Site A (6Units)</text><text x="139.35989379882812" y="42.519999999999996" font-family="Virgil, Segoe UI Emoji" font-size="20px" fill="#1e1e1e" text-anchor="middle" style="white-space: pre;" direction="ltr" dominant-baseline="alphabetic">3 control/worker + 3 worker</text></g><g stroke-linecap="round" transform="translate(76.15009733844727 218.4245015231943) rotate(0 128.60568702976775 130.43637296613457)"><path d="M32 0 C70.07 -0.81, 112.02 0.42, 225.21 0 C243.24 1.27, 255.41 10.83, 257.21 32 C250.89 102.48, 257 170.07, 257.21 228.87 C255.35 249.7, 246.73 257.89, 225.21 260.87 C160.72 260.37, 100.69 259.86, 32 260.87 C12.13 262.53, -2.2 248.95, 0 228.87 C2.03 164.87, 5.31 105.61, 0 32 C2.03 8.9, 7.25 3.09, 32 0" stroke="none" stroke-width="0" fill="#3bc9db"></path><path d="M32 0 C75.99 0.13, 119.55 -0.21, 225.21 0 M32 0 C89.43 -2.19, 144.56 -0.91, 225.21 0 M225.21 0 C246.6 1.06, 257.33 12.21, 257.21 32 M225.21 0 C246.68 1.08, 256.53 12.24, 257.21 32 M257.21 32 C256.37 74.63, 260.07 119.96, 257.21 228.87 M257.21 32 C258.15 97.77, 259.14 162.1, 257.21 228.87 M257.21 228.87 C255.93 249.59, 246.44 259.86, 225.21 260.87 M257.21 228.87 C255.32 248.36, 247.7 261.57, 225.21 260.87 M225.21 260.87 C187.08 261.14, 146.68 263.25, 32 260.87 M225.21 260.87 C149.48 258.24, 75.28 259.89, 32 260.87 M32 260.87 C10.89 261.47, -0.3 251, 0 228.87 M32 260.87 C12.77 261.41, 0.53 248.06, 0 228.87 M0 228.87 C0.28 182.52, -0.15 133.96, 0 32 M0 228.87 C2.04 182.99, 2.33 137.47, 0 32 M0 32 C-0.34 10.24, 11.13 0.93, 32 0 M0 32 C-1.78 11.95, 12.68 0.87, 32 0" stroke="#1e1e1e" stroke-width="2" fill="none"></path></g><g transform="translate(135.59583411186736 223.4245015231943) rotate(0 69.15995025634766 12.5)"><text x="69.15995025634766" y="17.52" font-family="Virgil, Segoe UI Emoji" font-size="20px" fill="#1e1e1e" text-anchor="middle" style="white-space: pre;" direction="ltr" dominant-baseline="alphabetic">Ubuntu 22.04</text></g><g stroke-linecap="round" transform="translate(85.30352702028176 255.03822025053046) rotate(0 118.07924289565858 105.72211282518265)"><path d="M32 0 C84.95 -0.61, 142.69 -1.72, 204.16 0 C227.12 -3.16, 234.3 7.46, 236.16 32 C236.44 86.1, 238.48 138.22, 236.16 179.44 C237.11 197.32, 225.14 210.02, 204.16 211.44 C154.76 212.53, 100.24 209.61, 32 211.44 C11.32 208.2, 0.95 199.61, 0 179.44 C0.47 139.05, -4.97 105.27, 0 32 C-2.18 13.31, 10.76 3.03, 32 0" stroke="none" stroke-width="0" fill="#0c8599"></path><path d="M32 0 C89.91 1.44, 150.05 1.63, 204.16 0 M32 0 C77.91 -1.1, 123.83 -0.86, 204.16 0 M204.16 0 C225.61 0.94, 235.57 12.04, 236.16 32 M204.16 0 C223.77 1.25, 237.85 8.47, 236.16 32 M236.16 32 C238.06 65.38, 239 94.6, 236.16 179.44 M236.16 32 C236.15 90.12, 236.74 148.36, 236.16 179.44 M236.16 179.44 C234.51 199.17, 226.5 212.05, 204.16 211.44 M236.16 179.44 C233.92 201.48, 227.09 212.66, 204.16 211.44 M204.16 211.44 C163.52 211.21, 117.46 211.11, 32 211.44 M204.16 211.44 C166.78 213.16, 129.03 213.26, 32 211.44 M32 211.44 C12.5 211.91, 0.46 198.91, 0 179.44 M32 211.44 C9.34 211.62, 0.06 201.28, 0 179.44 M0 179.44 C-1.35 123.57, -1.44 71.83, 0 32 M0 179.44 C-0.94 135.53, -0.54 92.5, 0 32 M0 32 C-1.55 11.78, 12.41 0.75, 32 0 M0 32 C-2.23 10.94, 11.84 -0.76, 32 0" stroke="#ffffff" stroke-width="2" fill="none"></path></g><g transform="translate(172.90279707658487 260.03822025053046) rotate(0 30.47997283935547 12.5)"><text x="30.47997283935547" y="17.52" font-family="Virgil, Segoe UI Emoji" font-size="20px" fill="#ffffff" text-anchor="middle" style="white-space: pre;" direction="ltr" dominant-baseline="alphabetic">k0sctl</text></g><g stroke-linecap="round" transform="translate(94.70451860518006 302.3021640635079) rotate(0 109.38348469791612 32.03700388641903)"><path d="M16.02 0 C80.28 -3.32, 139.42 -3.37, 202.75 0 C215.96 2.9, 220.93 3.48, 218.77 16.02 C219.75 21.72, 218.44 32.92, 218.77 48.06 C218.6 60.35, 212.76 65.54, 202.75 64.07 C138.77 59.65, 74.44 61.73, 16.02 64.07 C3.97 66.19, 2.01 60.76, 0 48.06 C-1.63 42.66, 0.64 35, 0 16.02 C-1.24 6.3, 6.96 -2.58, 16.02 0" stroke="none" stroke-width="0" fill="#e3fafc"></path><path d="M16.02 0 C88.08 -2.47, 163.37 -1.8, 202.75 0 M16.02 0 C81.97 -0.97, 147.5 -0.75, 202.75 0 M202.75 0 C211.93 1.09, 220.24 3.43, 218.77 16.02 M202.75 0 C211.5 2.06, 218.02 6.01, 218.77 16.02 M218.77 16.02 C220.94 28.93, 219.99 38.84, 218.77 48.06 M218.77 16.02 C217.93 23.83, 219.25 33.56, 218.77 48.06 M218.77 48.06 C216.82 59.35, 214.81 65.13, 202.75 64.07 M218.77 48.06 C217.53 58.57, 214.62 66.12, 202.75 64.07 M202.75 64.07 C155.59 63.55, 113.36 63.16, 16.02 64.07 M202.75 64.07 C142.11 65.05, 79.87 63.88, 16.02 64.07 M16.02 64.07 C4.18 64.23, 0.05 59.17, 0 48.06 M16.02 64.07 C6.87 64.08, 0.53 57.19, 0 48.06 M0 48.06 C0.16 42.43, 0.8 34.36, 0 16.02 M0 48.06 C-0.85 39.68, 0.8 30.57, 0 16.02 M0 16.02 C-1.94 5.58, 6.36 -0.66, 16.02 0 M0 16.02 C0.61 6.31, 6.74 -2.11, 16.02 0" stroke="#1e1e1e" stroke-width="2" fill="none"></path></g><g transform="translate(154.21804633288139 321.83916794992695) rotate(0 49.869956970214844 12.5)"><text x="49.869956970214844" y="17.52" font-family="Virgil, Segoe UI Emoji" font-size="20px" fill="#1e1e1e" text-anchor="middle" style="white-space: pre;" direction="ltr" dominant-baseline="alphabetic">containerd</text></g><g stroke-linecap="round" transform="translate(442.79854059328363 105.98612190664517) rotate(0 202.748467452623 66.52868663111042)"><path d="M32 0 C106.15 5.57, 178.37 2.4, 373.5 0 C394.33 0.18, 402.51 11.62, 405.5 32 C405.21 47.69, 404.71 61.62, 405.5 101.06 C407.16 120.19, 393.57 133.71, 373.5 133.06 C300.93 133.13, 231.51 133.08, 32 133.06 C8.9 129.64, 3.09 120.21, 0 101.06 C-1.28 76.23, 1.59 46.9, 0 32 C-2.75 7.7, 13.07 0.16, 32 0" stroke="none" stroke-width="0" fill="#e3fafc"></path><path d="M32 0 C124.6 0.02, 216.82 0.02, 373.5 0 M32 0 C150 -1.2, 269.48 -2.19, 373.5 0 M373.5 0 C393.15 1.79, 404.84 11.25, 405.5 32 M373.5 0 C396.58 1.76, 404.21 12.88, 405.5 32 M405.5 32 C405.21 55.58, 404.82 77.72, 405.5 101.06 M405.5 32 C404.87 47.49, 406.54 62.89, 405.5 101.06 M405.5 101.06 C404.42 122.24, 395.87 134.83, 373.5 133.06 M405.5 101.06 C404.2 120.24, 393.42 131.17, 373.5 133.06 M373.5 133.06 C260.84 133.11, 147.91 134.53, 32 133.06 M373.5 133.06 C262.64 130.99, 152.56 131.08, 32 133.06 M32 133.06 C12 133.06, 0.46 121.05, 0 101.06 M32 133.06 C8.56 131.41, 0.53 122.31, 0 101.06 M0 101.06 C-0.62 77.2, 0.73 50.86, 0 32 M0 101.06 C-1.57 76.62, -0.09 51.61, 0 32 M0 32 C0.53 11.51, 11.88 -1.83, 32 0 M0 32 C0.81 9.51, 10.77 1.04, 32 0" stroke="#1e1e1e" stroke-width="2" fill="none"></path></g><g transform="translate(512.3870959365316 147.51480853775558) rotate(0 133.15991210937494 25)"><text x="133.159912109375" y="17.52" font-family="Virgil, Segoe UI Emoji" font-size="20px" fill="#1e1e1e" text-anchor="middle" style="white-space: pre;" direction="ltr" dominant-baseline="alphabetic">Site A (6Units)</text><text x="133.159912109375" y="42.519999999999996" font-family="Virgil, Segoe UI Emoji" font-size="20px" fill="#1e1e1e" text-anchor="middle" style="white-space: pre;" direction="ltr" dominant-baseline="alphabetic">3 control plane + 3 worker</text></g><g stroke-linecap="round" transform="translate(443.71388356146645 256.05439044247487) rotate(0 201.83312448443974 63.368142112778685)"><path d="M31.68 0 C160.89 2.23, 288.78 2.74, 371.98 0 C389.64 -0.35, 402.24 10.4, 403.67 31.68 C405.11 51.33, 402.19 76.03, 403.67 95.05 C400.42 117.12, 391.94 125.37, 371.98 126.74 C248.76 126.76, 129.95 127.59, 31.68 126.74 C13.2 126.83, 3.03 114.93, 0 95.05 C-3.27 71.39, 1.89 53.82, 0 31.68 C1.56 12.81, 12.12 0.32, 31.68 0" stroke="none" stroke-width="0" fill="#e3fafc"></path><path d="M31.68 0 C136.41 -0.53, 240.8 -1.14, 371.98 0 M31.68 0 C151.68 2.76, 272.57 2.36, 371.98 0 M371.98 0 C394.63 1.53, 402.54 12.49, 403.67 31.68 M371.98 0 C394.09 1.12, 402.2 9.85, 403.67 31.68 M403.67 31.68 C401.74 51.37, 403.95 67.09, 403.67 95.05 M403.67 31.68 C403.57 52.56, 404.62 74.47, 403.67 95.05 M403.67 95.05 C402.54 114.31, 391.88 125.09, 371.98 126.74 M403.67 95.05 C404.38 118.07, 393.36 127.42, 371.98 126.74 M371.98 126.74 C275.31 129.12, 176.77 128.04, 31.68 126.74 M371.98 126.74 C267.68 127.23, 162.64 126.79, 31.68 126.74 M31.68 126.74 C8.73 125.3, 0.46 116.1, 0 95.05 M31.68 126.74 C11.76 127.39, -0.4 115.69, 0 95.05 M0 95.05 C0.82 76.31, 0.46 52.14, 0 31.68 M0 95.05 C-0.06 75.71, 0.28 54.61, 0 31.68 M0 31.68 C0.71 9.56, 10.65 0.9, 31.68 0 M0 31.68 C-2.02 9.37, 8.51 1.62, 31.68 0" stroke="#1e1e1e" stroke-width="2" fill="none"></path></g><g transform="translate(512.3870959365312 294.4225325552536) rotate(0 133.15991210937494 25)"><text x="133.159912109375" y="17.52" font-family="Virgil, Segoe UI Emoji" font-size="20px" fill="#1e1e1e" text-anchor="middle" style="white-space: pre;" direction="ltr" dominant-baseline="alphabetic">Site B (6Units) </text><text x="133.159912109375" y="42.519999999999996" font-family="Virgil, Segoe UI Emoji" font-size="20px" fill="#1e1e1e" text-anchor="middle" style="white-space: pre;" direction="ltr" dominant-baseline="alphabetic">3 control plane + 3 worker</text></g><g stroke-linecap="round" transform="translate(447.45230579641566 403.23642141692903) rotate(0 199.5447670639811 70.93888834747793)"><path d="M32 0 C131.88 -1.31, 235.47 -1.19, 367.09 0 C390.03 -0.67, 400.56 12.33, 399.09 32 C395.35 51.56, 397.43 67.85, 399.09 109.88 C401.2 133.22, 390.45 140.11, 367.09 141.88 C300.13 139.48, 231.65 138.58, 32 141.88 C11.62 143.5, -2.58 128.46, 0 109.88 C0.63 95.18, 0.62 76.32, 0 32 C-0.15 10.2, 13.9 -1.92, 32 0" stroke="none" stroke-width="0" fill="#e3fafc"></path><path d="M32 0 C123.34 2.69, 211.93 0.56, 367.09 0 M32 0 C162.98 -0.14, 292.56 -0.01, 367.09 0 M367.09 0 C389.28 0.97, 397.81 10.05, 399.09 32 M367.09 0 C388.3 -1.17, 397.2 8.82, 399.09 32 M399.09 32 C399.94 60.67, 400.39 85.49, 399.09 109.88 M399.09 32 C398.93 53.86, 398.88 76.76, 399.09 109.88 M399.09 109.88 C399.71 132.86, 388.65 142.47, 367.09 141.88 M399.09 109.88 C398.74 132.12, 390.53 142.42, 367.09 141.88 M367.09 141.88 C258.99 140.61, 150.98 141.47, 32 141.88 M367.09 141.88 C265.82 139.88, 165.95 140.34, 32 141.88 M32 141.88 C11.71 142.45, -0.34 130.79, 0 109.88 M32 141.88 C11.2 142.94, -1.78 132.49, 0 109.88 M0 109.88 C-0.06 80.72, -0.95 50.07, 0 32 M0 109.88 C-0.12 82.74, -0.43 57.05, 0 32 M0 32 C-1.76 9.63, 8.88 1.41, 32 0 M0 32 C1.86 12.05, 9.48 -0.32, 32 0" stroke="#1e1e1e" stroke-width="2" fill="none"></path></g><g transform="translate(608.0271021572718 461.67530976440696) rotate(0 38.96997070312506 12.5)"><text x="38.969970703125" y="17.52" font-family="Virgil, Segoe UI Emoji" font-size="20px" fill="#1e1e1e" text-anchor="middle" style="white-space: pre;" direction="ltr" dominant-baseline="alphabetic">DR Site</text></g><g stroke-linecap="round" transform="translate(98.11832857484933 378.6095209552893) rotate(0 107.55279876154935 35.24070427506092)"><path d="M17.62 0 C71.42 -0.52, 123.46 1.81, 197.49 0 C207.04 -1.26, 215.76 2.63, 215.11 17.62 C217.01 31.13, 216.93 38.85, 215.11 52.86 C211.69 67.7, 207.05 73.12, 197.49 70.48 C144.01 70.98, 86.03 66.61, 17.62 70.48 C2.9 72.89, 0.16 66.17, 0 52.86 C-0.43 39.62, 2.96 25.4, 0 17.62 C3.29 6.81, 8.15 -2.43, 17.62 0" stroke="none" stroke-width="0" fill="#e3fafc"></path><path d="M17.62 0 C86.61 0.86, 152.61 3.03, 197.49 0 M17.62 0 C85.75 -1.24, 152.37 -2.04, 197.49 0 M197.49 0 C209.13 -1.01, 213.46 4.27, 215.11 17.62 M197.49 0 C210.39 0.69, 212.87 6.58, 215.11 17.62 M215.11 17.62 C215.15 31.67, 217.07 42.53, 215.11 52.86 M215.11 17.62 C215.2 25.72, 215 32.48, 215.11 52.86 M215.11 52.86 C214.81 65.4, 211.06 70.95, 197.49 70.48 M215.11 52.86 C215.63 62.46, 207.9 70.66, 197.49 70.48 M197.49 70.48 C143.04 72.14, 87.24 69.84, 17.62 70.48 M197.49 70.48 C156.93 70.7, 115.17 70.2, 17.62 70.48 M17.62 70.48 C6.34 71.41, -1.55 65.72, 0 52.86 M17.62 70.48 C7.88 71.35, -2.23 64.88, 0 52.86 M0 52.86 C0.96 41.71, -1.72 28.84, 0 17.62 M0 52.86 C-0.89 43.54, -0.91 35.96, 0 17.62 M0 17.62 C1.61 7.08, 4.84 -0.28, 17.62 0 M0 17.62 C0.12 3.97, 6.48 -2.21, 17.62 0" stroke="#1e1e1e" stroke-width="2" fill="none"></path></g><g transform="translate(152.37118531979706 401.35022523035025) rotate(0 53.29994201660156 12.5)"><text x="53.29994201660156" y="17.52" font-family="Virgil, Segoe UI Emoji" font-size="20px" fill="#1e1e1e" text-anchor="middle" style="white-space: pre;" direction="ltr" dominant-baseline="alphabetic">Kuberouter</text></g></svg>