<svg version="1.1" xmlns="http://www.w3.org/2000/svg" viewBox="0 0 920.6973540356666 591.299618731714" width="920.6973540356666" height="591.299618731714">
  <!-- svg-source:excalidraw -->
  
  <defs>
    <style class="style-fonts">
      @font-face {
        font-family: "Virgil";
        src: url("https://excalidraw.com/Virgil.woff2");
      }
      @font-face {
        font-family: "Cascadia";
        src: url("https://excalidraw.com/Cascadia.woff2");
      }
      @font-face {
        font-family: "Assistant";
        src: url("https://excalidraw.com/Assistant-Regular.woff2");
      }
    </style>
    
  </defs>
  <g stroke-linecap="round" transform="translate(10 10) rotate(0 450.3486770178333 285.649809365857)"><path d="M32 0 C229.52 5.29, 430.65 4.51, 868.7 0 C892.88 -0.06, 902.05 11.08, 900.7 32 C900.61 210.32, 900.76 389.27, 900.7 539.3 C900.46 558.21, 891.25 568.35, 868.7 571.3 C692.37 567.47, 517.13 568.01, 32 571.3 C11.03 567.8, 2.61 559.42, 0 539.3 C0.36 420.6, 1.5 302.88, 0 32 C0.02 7.38, 7.15 0.09, 32 0" stroke="none" stroke-width="0" fill="#f3f0ff"></path><path d="M32 0 C219.16 -1.42, 406.97 -1.05, 868.7 0 M32 0 C296.1 1.14, 560.62 0.82, 868.7 0 M868.7 0 C888.56 0.74, 898.89 12.36, 900.7 32 M868.7 0 C887.85 1.02, 899.08 10.16, 900.7 32 M900.7 32 C900.41 215.69, 900.7 400.26, 900.7 539.3 M900.7 32 C901.11 152.49, 901.2 273.29, 900.7 539.3 M900.7 539.3 C902.38 562.07, 888.57 572.76, 868.7 571.3 M900.7 539.3 C899.27 561.45, 889.96 570.99, 868.7 571.3 M868.7 571.3 C583.94 572.56, 301.02 573.33, 32 571.3 M868.7 571.3 C627.35 568.69, 386.16 568.38, 32 571.3 M32 571.3 C10.07 572.44, 0.15 560.27, 0 539.3 M32 571.3 C8.74 570.86, -0.73 560.98, 0 539.3 M0 539.3 C-2.23 342.25, -1.89 146.19, 0 32 M0 539.3 C-0.67 377.04, -0.71 214.65, 0 32 M0 32 C-0.86 10.66, 9.65 -0.03, 32 0 M0 32 C-2.22 8.45, 11.1 -0.48, 32 0" stroke="#1e1e1e" stroke-width="2" fill="none"></path></g><g transform="translate(346.7387298132435 15) rotate(0 113.60994720458984 17.5)"><text x="113.60994720458984" y="24.528" font-family="Virgil, Segoe UI Emoji" font-size="28px" fill="#1e1e1e" text-anchor="middle" style="white-space: pre;" direction="ltr" dominant-baseline="alphabetic">Openk8s Project</text></g><g stroke-linecap="round" transform="translate(422.24705524517367 67.4647410341754) rotate(0 227.98511388558813 248.8041737798295)"><path d="M32 0 C176.4 -0.46, 318.27 -0.18, 423.97 0 C447.18 -1.29, 458.2 13.72, 455.97 32 C459.64 150.97, 460.39 270.91, 455.97 465.61 C452.72 484.68, 442.88 495.35, 423.97 497.61 C300.44 497.75, 177.99 499.08, 32 497.61 C8.23 496.57, -2.01 485.22, 0 465.61 C-1.24 360.06, -3.04 257.9, 0 32 C0.39 9.13, 11.14 -0.94, 32 0" stroke="none" stroke-width="0" fill="#ffffff"></path><path d="M32 0 C149.96 -0.76, 267.19 -1.55, 423.97 0 M32 0 C157.91 1.54, 284.15 1.82, 423.97 0 M423.97 0 C443.41 0.89, 454.57 10.23, 455.97 32 M423.97 0 C446.74 -0.7, 456.6 11.63, 455.97 32 M455.97 32 C457.07 150.86, 457.47 269.09, 455.97 465.61 M455.97 32 C456.55 148.11, 455.74 263.86, 455.97 465.61 M455.97 465.61 C454.73 487.65, 445.24 497.34, 423.97 497.61 M455.97 465.61 C456.88 488.82, 446.22 495.81, 423.97 497.61 M423.97 497.61 C309.73 498.48, 194.81 499.36, 32 497.61 M423.97 497.61 C291.92 496.99, 160.26 496.56, 32 497.61 M32 497.61 C8.99 497.23, -0.64 487.24, 0 465.61 M32 497.61 C12.69 499.46, 0.7 485.22, 0 465.61 M0 465.61 C0.9 351.37, 0.68 236.47, 0 32 M0 465.61 C-0.06 314.41, -0.1 163.21, 0 32 M0 32 C-1.93 8.74, 11.04 -0.42, 32 0 M0 32 C-1.44 11.36, 9 -1.83, 32 0" stroke="#1e1e1e" stroke-width="2" fill="none"></path></g><g transform="translate(528.8822698387696 72.4647410341754) rotate(0 121.34989929199219 12.5)"><text x="121.34989929199219" y="17.52" font-family="Virgil, Segoe UI Emoji" font-size="20px" fill="#1e1e1e" text-anchor="middle" style="white-space: pre;" direction="ltr" dominant-baseline="alphabetic">Future State Framework</text></g><g stroke-linecap="round" transform="translate(30.025770904341243 106.44321513366413) rotate(0 180.99214731576888 200.433158664117)"><path d="M32 0 C122.31 -1.4, 211.5 1.79, 329.98 0 C350.5 3.43, 361.9 10.43, 361.98 32 C361.18 108.82, 361.74 187.17, 361.98 368.87 C362.55 388.41, 353.23 401.23, 329.98 400.87 C267.8 398.77, 207.72 398.26, 32 400.87 C8.49 401.99, -1.92 390.22, 0 368.87 C4.24 297.49, 4.3 227.56, 0 32 C-0.32 12.22, 10.73 2.32, 32 0" stroke="none" stroke-width="0" fill="#ffffff"></path><path d="M32 0 C129.71 1.2, 225.91 -0.19, 329.98 0 M32 0 C131.71 -1.53, 232.3 -2.02, 329.98 0 M329.98 0 C352.57 -0.61, 362.53 11.51, 361.98 32 M329.98 0 C350.71 1.8, 363.31 9.24, 361.98 32 M361.98 32 C361.02 141.05, 361.63 251.06, 361.98 368.87 M361.98 32 C359.91 157.51, 360.31 282.44, 361.98 368.87 M361.98 368.87 C362.78 391.83, 352.11 399.3, 329.98 400.87 M361.98 368.87 C361.78 391.9, 353.32 400.6, 329.98 400.87 M329.98 400.87 C269.71 400.43, 207.75 400, 32 400.87 M329.98 400.87 C223.04 400.33, 117.11 400.58, 32 400.87 M32 400.87 C12.42 402.48, 0.61 388.7, 0 368.87 M32 400.87 C9.84 400.14, 1.21 390.66, 0 368.87 M0 368.87 C0.69 256.47, 0.89 143.7, 0 32 M0 368.87 C0.5 267.21, 1.28 166.71, 0 32 M0 32 C-1.25 11.27, 9.22 -1.59, 32 0 M0 32 C1.48 12.76, 10.9 1.82, 32 0" stroke="#1e1e1e" stroke-width="2" fill="none"></path></g><g transform="translate(108.83800946766883 111.44321513366413) rotate(0 102.1799087524414 12.5)"><text x="102.1799087524414" y="17.52" font-family="Virgil, Segoe UI Emoji" font-size="20px" fill="#1e1e1e" text-anchor="middle" style="white-space: pre;" direction="ltr" dominant-baseline="alphabetic">openk8s MVP cluster</text></g><g stroke-linecap="round" transform="translate(45.95255926240452 150.34626215076696) rotate(0 156.52364755936185 173.45749247075412)"><path d="M32 0 C97.14 -0.31, 163.56 -3.31, 281.05 0 C299.95 1.22, 310.1 7.41, 313.05 32 C310.87 97.71, 311.89 166.43, 313.05 314.91 C309.54 338.85, 301.16 344.48, 281.05 346.91 C211.73 346.08, 144.4 345.18, 32 346.91 C7.38 343.4, 0.09 336.64, 0 314.91 C-0.75 243.29, -0.46 171.07, 0 32 C2.14 9.4, 7.64 0.63, 32 0" stroke="none" stroke-width="0" fill="#e3fafc"></path><path d="M32 0 C112.49 0.02, 193.16 -0.05, 281.05 0 M32 0 C118.25 0.2, 203.7 0.79, 281.05 0 M281.05 0 C301.85 1.56, 314.2 9.42, 313.05 32 M281.05 0 C302.92 -0.53, 312.7 9.91, 313.05 32 M313.05 32 C314.42 117.63, 314.44 204.54, 313.05 314.91 M313.05 32 C313.28 127.54, 313.29 221.25, 313.05 314.91 M313.05 314.91 C312.87 337.73, 304.13 346.68, 281.05 346.91 M313.05 314.91 C310.84 334.36, 301.93 347.75, 281.05 346.91 M281.05 346.91 C207.39 346.43, 131.58 344.93, 32 346.91 M281.05 346.91 C211.82 347.88, 141.41 346.61, 32 346.91 M32 346.91 C9.95 346.29, 1.05 336.65, 0 314.91 M32 346.91 C11.43 346.88, 0.05 337.37, 0 314.91 M0 314.91 C-1.37 231.34, -1.39 147.85, 0 32 M0 314.91 C-0.88 257.56, -0.96 199.14, 0 32 M0 32 C1.28 12.49, 10.87 1.58, 32 0 M0 32 C-0.04 11.53, 10.93 1.2, 32 0" stroke="#1e1e1e" stroke-width="2" fill="none"></path></g><g transform="translate(63.11631302293813 155.34626215076696) rotate(0 139.35989379882812 25)"><text x="139.35989379882812" y="17.52" font-family="Virgil, Segoe UI Emoji" font-size="20px" fill="#1e1e1e" text-anchor="middle" style="white-space: pre;" direction="ltr" dominant-baseline="alphabetic">Site A (6Units)</text><text x="139.35989379882812" y="42.519999999999996" font-family="Virgil, Segoe UI Emoji" font-size="20px" fill="#1e1e1e" text-anchor="middle" style="white-space: pre;" direction="ltr" dominant-baseline="alphabetic">3 control/worker + 3 worker</text></g><g stroke-linecap="round" transform="translate(76.15009733844727 218.4245015231943) rotate(0 128.60568702976775 130.43637296613457)"><path d="M32 0 C105.92 1.45, 181.75 -3.02, 225.21 0 C244.28 -2.42, 254.95 11.23, 257.21 32 C255.59 83.89, 257.88 128.12, 257.21 228.87 C256.17 248.19, 244.82 258.7, 225.21 260.87 C157.91 257.38, 97.28 261.28, 32 260.87 C9.13 261.35, -0.94 249.89, 0 228.87 C2.07 160.05, -3.09 94.41, 0 32 C1.54 9.27, 11.1 -2.95, 32 0" stroke="none" stroke-width="0" fill="#3bc9db"></path><path d="M32 0 C73.38 0.43, 112.54 3.08, 225.21 0 M32 0 C83.79 -0.03, 136.69 -1.43, 225.21 0 M225.21 0 C247.01 -0.46, 256.91 10.01, 257.21 32 M225.21 0 C246.7 0.29, 259.15 12.32, 257.21 32 M257.21 32 C259.36 76.58, 258.38 122.06, 257.21 228.87 M257.21 32 C257.91 107.84, 258.87 182.09, 257.21 228.87 M257.21 228.87 C255.29 248.56, 246.15 261.6, 225.21 260.87 M257.21 228.87 C257.2 249.25, 245.86 262.18, 225.21 260.87 M225.21 260.87 C165.39 258.62, 106.63 261.01, 32 260.87 M225.21 260.87 C151.32 259.11, 78.68 259.63, 32 260.87 M32 260.87 C11.33 260.84, 0.05 251.18, 0 228.87 M32 260.87 C10.5 262.33, -0.99 250.2, 0 228.87 M0 228.87 C-1.9 180.22, -0.39 129.56, 0 32 M0 228.87 C2.07 164.77, 1.53 99.65, 0 32 M0 32 C-0.03 11.42, 10.9 1.04, 32 0 M0 32 C-0.82 12.09, 12.62 -0.52, 32 0" stroke="#1e1e1e" stroke-width="2" fill="none"></path></g><g transform="translate(135.59583411186736 223.4245015231943) rotate(0 69.15995025634766 12.5)"><text x="69.15995025634766" y="17.52" font-family="Virgil, Segoe UI Emoji" font-size="20px" fill="#1e1e1e" text-anchor="middle" style="white-space: pre;" direction="ltr" dominant-baseline="alphabetic">Ubuntu 22.04</text></g><g stroke-linecap="round" transform="translate(85.30352702028176 255.03822025053046) rotate(0 118.07924289565858 105.72211282518265)"><path d="M32 0 C87.22 0.38, 144.71 3.36, 204.16 0 C223.7 1.91, 236.53 7.16, 236.16 32 C234.22 84.89, 233.54 139.64, 236.16 179.44 C237.29 198.86, 225.51 208.16, 204.16 211.44 C167.78 212.25, 133.53 211.46, 32 211.44 C12.22 211.51, 2.32 202.92, 0 179.44 C3.77 139.02, 2.67 98.44, 0 32 C2.8 7.53, 9.12 -0.31, 32 0" stroke="none" stroke-width="0" fill="#0c8599"></path><path d="M32 0 C70.94 -0.53, 111.95 -1.6, 204.16 0 M32 0 C97.34 0.84, 162.07 0.74, 204.16 0 M204.16 0 C225.62 0.25, 237.84 12.1, 236.16 32 M204.16 0 C223.81 1.68, 234.73 11.48, 236.16 32 M236.16 32 C237.59 76.58, 234.4 119.4, 236.16 179.44 M236.16 32 C236.49 86.32, 237.25 142.64, 236.16 179.44 M236.16 179.44 C236.15 199.95, 224.89 212.58, 204.16 211.44 M236.16 179.44 C236.33 200.36, 223.56 211, 204.16 211.44 M204.16 211.44 C159.59 213.56, 110.3 212.24, 32 211.44 M204.16 211.44 C158.25 211.78, 111.69 212.28, 32 211.44 M32 211.44 C10.52 212.71, -0.86 200.77, 0 179.44 M32 211.44 C9.5 211.41, -2.22 198.56, 0 179.44 M0 179.44 C0.91 130.99, -1.28 86.71, 0 32 M0 179.44 C-0.17 122.18, -0.04 64.68, 0 32 M0 32 C-0.71 11.91, 12.36 -0.46, 32 0 M0 32 C2.19 10.62, 10.51 -1.55, 32 0" stroke="#ffffff" stroke-width="2" fill="none"></path></g><g transform="translate(172.90279707658487 260.03822025053046) rotate(0 30.47997283935547 12.5)"><text x="30.47997283935547" y="17.52" font-family="Virgil, Segoe UI Emoji" font-size="20px" fill="#ffffff" text-anchor="middle" style="white-space: pre;" direction="ltr" dominant-baseline="alphabetic">k0sctl</text></g><g stroke-linecap="round" transform="translate(94.70451860518006 302.3021640635079) rotate(0 109.38348469791606 32.03700388641903)"><path d="M16.02 0 C57.68 1.39, 103.29 -4.03, 202.75 0 C216.03 -1.22, 216.33 4.3, 218.77 16.02 C219.62 21.92, 218.51 28.37, 218.77 48.06 C215.25 58.83, 213.82 62.54, 202.75 64.07 C145.82 63.84, 88.1 65.91, 16.02 64.07 C4.07 61.05, 0.63 60.28, 0 48.06 C2.73 36.55, -1.62 31, 0 16.02 C0.38 3.17, 6.27 0.1, 16.02 0" stroke="none" stroke-width="0" fill="#e3fafc"></path><path d="M16.02 0 C78.7 1.64, 137.01 0.96, 202.75 0 M16.02 0 C67.8 0.74, 120.29 1.34, 202.75 0 M202.75 0 C211.96 1.46, 217.53 6.05, 218.77 16.02 M202.75 0 C213.36 -0.31, 219.68 7.21, 218.77 16.02 M218.77 16.02 C220 28.65, 218.28 35.88, 218.77 48.06 M218.77 16.02 C218.7 22.58, 218.4 30.54, 218.77 48.06 M218.77 48.06 C218.92 58.37, 211.75 63.69, 202.75 64.07 M218.77 48.06 C218.04 59.08, 215.45 65.93, 202.75 64.07 M202.75 64.07 C140.43 64.46, 79.78 64.07, 16.02 64.07 M202.75 64.07 C146.97 65.62, 90.91 64.98, 16.02 64.07 M16.02 64.07 C4.32 64.05, -1.93 56.81, 0 48.06 M16.02 64.07 C5.77 63.59, -1.44 59.43, 0 48.06 M0 48.06 C2.07 40.97, 1.84 33.44, 0 16.02 M0 48.06 C-0.39 37.87, 0.81 26.21, 0 16.02 M0 16.02 C1.9 5.29, 5.21 -1.35, 16.02 0 M0 16.02 C0.78 3.46, 3.26 -1.45, 16.02 0" stroke="#1e1e1e" stroke-width="2" fill="none"></path></g><g transform="translate(181.20802893786185 321.83916794992695) rotate(0 22.879974365234375 12.5)"><text x="22.879974365234375" y="17.52" font-family="Virgil, Segoe UI Emoji" font-size="20px" fill="#1e1e1e" text-anchor="middle" style="white-space: pre;" direction="ltr" dominant-baseline="alphabetic">cri-O</text></g><g stroke-linecap="round" transform="translate(442.79854059328363 105.98612190664517) rotate(0 202.748467452623 66.52868663111042)"><path d="M32 0 C154.33 3.16, 271.58 3.29, 373.5 0 C392.82 -1.72, 403.32 11.79, 405.5 32 C401.99 49.13, 405.89 64.55, 405.5 101.06 C405.97 121.45, 394.51 134.61, 373.5 133.06 C269.57 133.47, 167.75 136.51, 32 133.06 C9.27 133.5, -2.95 125.2, 0 101.06 C0.92 84.19, 1.47 71.76, 0 32 C-0.13 10.77, 7.21 2.12, 32 0" stroke="none" stroke-width="0" fill="#e3fafc"></path><path d="M32 0 C153.78 -0.73, 275.74 -0.44, 373.5 0 M32 0 C138.31 -1.14, 245.18 -1.39, 373.5 0 M373.5 0 C394.77 -0.27, 406.29 12.3, 405.5 32 M373.5 0 C395.75 -1.8, 405.29 12.37, 405.5 32 M405.5 32 C403.77 58.35, 406.15 85.48, 405.5 101.06 M405.5 32 C405.37 49.67, 404.45 67.5, 405.5 101.06 M405.5 101.06 C404.86 122.69, 396.59 134.67, 373.5 133.06 M405.5 101.06 C406.2 120.67, 394.01 132.34, 373.5 133.06 M373.5 133.06 C253.12 133.84, 133.43 133.72, 32 133.06 M373.5 133.06 C249.03 133.05, 124.59 132.41, 32 133.06 M32 133.06 C11.04 132.64, -1.25 122.99, 0 101.06 M32 133.06 C9 131.23, 1.48 124.48, 0 101.06 M0 101.06 C0.2 79.86, 0.5 57.48, 0 32 M0 101.06 C0.37 76.03, -0.65 50.38, 0 32 M0 32 C0.68 9.03, 8.86 -1.26, 32 0 M0 32 C-1.55 9.22, 11.03 -1.14, 32 0" stroke="#1e1e1e" stroke-width="2" fill="none"></path></g><g transform="translate(512.3870959365318 147.51480853775558) rotate(0 133.159912109375 25)"><text x="133.159912109375" y="17.52" font-family="Virgil, Segoe UI Emoji" font-size="20px" fill="#1e1e1e" text-anchor="middle" style="white-space: pre;" direction="ltr" dominant-baseline="alphabetic">Site A (6Units)</text><text x="133.159912109375" y="42.519999999999996" font-family="Virgil, Segoe UI Emoji" font-size="20px" fill="#1e1e1e" text-anchor="middle" style="white-space: pre;" direction="ltr" dominant-baseline="alphabetic">3 control plane + 3 worker</text></g><g stroke-linecap="round" transform="translate(443.71388356146645 256.05439044247487) rotate(0 201.83312448443974 63.368142112778685)"><path d="M31.68 0 C120.92 0.03, 211.39 1.93, 371.98 0 C391.19 0.02, 400.38 7.05, 403.67 31.68 C404.26 49.92, 403.47 71.58, 403.67 95.05 C403.73 118.49, 395.24 125.47, 371.98 126.74 C297.59 128.77, 223.09 130.35, 31.68 126.74 C7.42 125.19, -0.31 116.56, 0 95.05 C-0.42 79.97, -3.75 66.8, 0 31.68 C3.59 7.11, 13.65 0.24, 31.68 0" stroke="none" stroke-width="0" fill="#e3fafc"></path><path d="M31.68 0 C128.87 0.97, 226.67 -1.13, 371.98 0 M31.68 0 C158.65 -0.89, 285.93 -0.26, 371.98 0 M371.98 0 C393.9 -1.56, 403.49 12.04, 403.67 31.68 M371.98 0 C395.11 -0.27, 401.46 8.67, 403.67 31.68 M403.67 31.68 C403.07 48.86, 405.03 67.38, 403.67 95.05 M403.67 31.68 C402.82 49.71, 404.01 68.23, 403.67 95.05 M403.67 95.05 C404.27 114.68, 392.39 126.11, 371.98 126.74 M403.67 95.05 C404.87 116.64, 393.87 126.7, 371.98 126.74 M371.98 126.74 C269.96 126, 166.24 125.89, 31.68 126.74 M371.98 126.74 C270.46 124.41, 168.27 124.75, 31.68 126.74 M31.68 126.74 C9.11 125.14, 1.28 117.99, 0 95.05 M31.68 126.74 C10.8 128.56, -0.04 117.04, 0 95.05 M0 95.05 C0.91 77.01, -0.79 57.48, 0 31.68 M0 95.05 C0.38 75.37, -0.86 56.69, 0 31.68 M0 31.68 C-1.35 9.31, 10.88 -0.99, 31.68 0 M0 31.68 C1.22 10.8, 8.32 1.66, 31.68 0" stroke="#1e1e1e" stroke-width="2" fill="none"></path></g><g transform="translate(512.3870959365311 294.4225325552536) rotate(0 133.159912109375 25)"><text x="133.159912109375" y="17.52" font-family="Virgil, Segoe UI Emoji" font-size="20px" fill="#1e1e1e" text-anchor="middle" style="white-space: pre;" direction="ltr" dominant-baseline="alphabetic">Site B (6Units) </text><text x="133.159912109375" y="42.519999999999996" font-family="Virgil, Segoe UI Emoji" font-size="20px" fill="#1e1e1e" text-anchor="middle" style="white-space: pre;" direction="ltr" dominant-baseline="alphabetic">3 control plane + 3 worker</text></g><g stroke-linecap="round" transform="translate(447.45230579641566 403.23642141692903) rotate(0 199.5447670639811 70.93888834747793)"><path d="M32 0 C115.18 -1.26, 198.74 -3.65, 367.09 0 C388.51 0.39, 397.55 11.14, 399.09 32 C399.03 55.65, 401.1 73.4, 399.09 109.88 C396.06 131.84, 389.96 140.49, 367.09 141.88 C260.37 144, 157.67 145.31, 32 141.88 C8.49 142.81, 0.1 131.08, 0 109.88 C4.94 82.84, 4.43 62.94, 0 32 C3.42 13.76, 13.35 1.22, 32 0" stroke="none" stroke-width="0" fill="#e3fafc"></path><path d="M32 0 C161.69 0.82, 289.89 1.62, 367.09 0 M32 0 C128.29 -2.37, 223.98 -1.34, 367.09 0 M367.09 0 C390.17 -0.23, 397.17 9.02, 399.09 32 M367.09 0 C387.97 0.84, 399.08 9.71, 399.09 32 M399.09 32 C399.17 51.35, 399.15 73.42, 399.09 109.88 M399.09 32 C400.08 55.8, 399.42 80.77, 399.09 109.88 M399.09 109.88 C400.14 131.62, 389.09 141.84, 367.09 141.88 M399.09 109.88 C399.14 132.33, 388.25 143.34, 367.09 141.88 M367.09 141.88 C280.91 139.42, 193.46 140.98, 32 141.88 M367.09 141.88 C273.08 142.02, 180.48 143.17, 32 141.88 M32 141.88 C10.87 143.46, -0.03 131.96, 0 109.88 M32 141.88 C10.93 143.08, -0.82 132.64, 0 109.88 M0 109.88 C0.13 79.78, -1.17 50.63, 0 32 M0 109.88 C0.03 92.27, 0.86 75.41, 0 32 M0 32 C1.06 10.87, 8.72 1.45, 32 0 M0 32 C-0.78 9.11, 10 -1.29, 32 0" stroke="#1e1e1e" stroke-width="2" fill="none"></path></g><g transform="translate(608.0271021572719 461.67530976440696) rotate(0 38.969970703125 12.5)"><text x="38.969970703125" y="17.52" font-family="Virgil, Segoe UI Emoji" font-size="20px" fill="#1e1e1e" text-anchor="middle" style="white-space: pre;" direction="ltr" dominant-baseline="alphabetic">DR Site</text></g><g stroke-linecap="round" transform="translate(98.11832857484933 378.6095209552893) rotate(0 107.5527987615493 35.24070427506092)"><path d="M17.62 0 C71.78 3.55, 124.23 3.64, 197.49 0 C208.29 -0.32, 216.66 5.94, 215.11 17.62 C212.45 31.09, 217.02 41.91, 215.11 52.86 C215.54 61.66, 212.04 67.34, 197.49 70.48 C149.09 71.76, 105.14 70.7, 17.62 70.48 C5.98 67.03, 2.12 68.2, 0 52.86 C2.88 48.76, 2.14 39.68, 0 17.62 C2.35 7, 5.3 2.47, 17.62 0" stroke="none" stroke-width="0" fill="#e3fafc"></path><path d="M17.62 0 C60.16 0.85, 104.86 0.85, 197.49 0 M17.62 0 C58.38 -1.45, 96.44 -2.15, 197.49 0 M197.49 0 C208.84 0.73, 215.1 5.04, 215.11 17.62 M197.49 0 C208.54 1.31, 215.28 5.46, 215.11 17.62 M215.11 17.62 C215.34 26.99, 216.65 33.45, 215.11 52.86 M215.11 17.62 C215.5 25.76, 215.31 33.48, 215.11 52.86 M215.11 52.86 C215.15 65.58, 209.09 71.75, 197.49 70.48 M215.11 52.86 C214.12 64.6, 208.06 70.45, 197.49 70.48 M197.49 70.48 C160.46 69.57, 124.87 69.37, 17.62 70.48 M197.49 70.48 C157.94 72.91, 118.17 72.49, 17.62 70.48 M17.62 70.48 C6.1 71.52, -0.71 65.85, 0 52.86 M17.62 70.48 C7.82 69.96, 2.19 64.56, 0 52.86 M0 52.86 C-1.4 40.72, -1.02 30.84, 0 17.62 M0 52.86 C0.48 44.6, -1.03 36.86, 0 17.62 M0 17.62 C-0.68 4.52, 5.3 -1.12, 17.62 0 M0 17.62 C-1.1 4.48, 6.59 -1.22, 17.62 0" stroke="#1e1e1e" stroke-width="2" fill="none"></path></g><g transform="translate(152.37118531979706 401.35022523035025) rotate(0 53.29994201660162 12.5)"><text x="53.29994201660156" y="17.52" font-family="Virgil, Segoe UI Emoji" font-size="20px" fill="#1e1e1e" text-anchor="middle" style="white-space: pre;" direction="ltr" dominant-baseline="alphabetic">Kuberouter</text></g></svg>